<svg width="19" height="24" viewBox="0 0 19 24" fill="none" xmlns="http://www.w3.org/2000/svg">
<path fill-rule="evenodd" clip-rule="evenodd" d="M12.3938 3.53765C13.263 2.60055 13.8511 1.29864 13.6906 0C12.4371 0.0450563 10.9185 0.740522 10.0204 1.67726C9.21332 2.50753 8.50795 3.83342 8.69629 5.1059C10.0955 5.20219 11.5228 4.47366 12.3938 3.53765ZM15.0616 12.502C15.0346 9.59118 17.3495 8.19444 17.4534 8.12576C16.1524 6.15019 14.125 5.87949 13.4037 5.84933C11.6791 5.66692 10.0385 6.90197 9.16245 6.90197C8.28966 6.90197 6.93952 5.87367 5.50856 5.90092C3.62804 5.93181 1.89473 7.03496 0.927765 8.78344C-1.026 12.3 0.426605 17.5109 2.3313 20.3629C3.26182 21.7597 4.37058 23.3261 5.82643 23.269C7.23033 23.2131 7.76036 22.3279 9.45615 22.3279C11.1509 22.3279 11.6278 23.269 13.1111 23.2407C14.6204 23.2131 15.5769 21.8174 16.5009 20.4171C17.5685 18.7983 18.008 17.23 18.0347 17.1505C18.0008 17.133 15.0923 15.979 15.0616 12.502Z" fill="black"/>
</svg>
